<svg version="1.2" xmlns="http://www.w3.org/2000/svg" viewBox="0 0 285 261" width="285" height="261">
	<title>liyah</title>
	<style>
		tspan { white-space:pre } 
		.s0 { fill: #94b091 } 
		.t1 { font-size: 127px;fill: #141414;font-weight: 900;font-family: "Poppins-Black", "Poppins" } 
		.t2 { font-size: 44px;fill: #141414;font-weight: 600;font-family: "Poppins-SemiBold", "Poppins" } 
		.t3 { font-size: 44px;fill: #090909;font-weight: 600;font-family: "Poppins-SemiBold", "Poppins" } 
	</style>
	<path id="Shape 6" fill-rule="evenodd" class="s0" d="m204.5 218c-24.6 0-44.5-19.9-44.5-44.5 0-24.6 19.9-44.5 44.5-44.5 24.6 0 44.5 19.9 44.5 44.5 0 24.6-19.9 44.5-44.5 44.5z"/>
	<g id="Folder 1">
		<text id="iyah " style="transform: matrix(1.466,0,0,1.466,293.65,222.011)" >
			<tspan x="0" y="0" class="t1">i</tspan><tspan  y="0" class="t1">y</tspan><tspan  y="0" class="t1">a</tspan><tspan  y="0" class="t1">h</tspan><tspan  y="0" class="t1"> 
</tspan>
		</text>
		<text id="consultancy services" style="transform: matrix(1.466,0,0,1.466,53.914,332.258)" >
			<tspan x="0" y="0" class="t2">c</tspan><tspan  y="0" class="t2">onsultancy </tspan><tspan  y="0" class="t2">s</tspan><tspan  y="0" class="t2">ervices</tspan><tspan  y="0" class="t2">
</tspan>
		</text>
		<path id="Shape 2" fill-rule="evenodd" class="s0" d="m45 19.7c-0.1 0.7 0.4 128.4 0.4 128.4 0 0 6.4 76.7 83.7 66.7 0 0.1 0-109.8 0-109.8 0 0-5.2-75.5-81.7-85.3-2.3 0.2-2.3-0.7-2.4 0z"/>
	</g>
	<text id="sounder narayana samy" style="opacity: .3;transform: matrix(1.461,-0.12,.12,1.461,-0.659,199.778)" >
		<tspan x="0" y="0" class="t3">s</tspan><tspan  y="0" class="t3">o</tspan><tspan  y="0" class="t3">u</tspan><tspan  y="0" class="t3">n</tspan><tspan  y="0" class="t3">d</tspan><tspan  y="0" class="t3">e</tspan><tspan  y="0" class="t3">r</tspan><tspan  y="0" class="t3"> </tspan><tspan  y="0" class="t3">n</tspan><tspan  y="0" class="t3">a</tspan><tspan  y="0" class="t3">r</tspan><tspan  y="0" class="t3">a</tspan><tspan  y="0" class="t3">y</tspan><tspan  y="0" class="t3">a</tspan><tspan  y="0" class="t3">n</tspan><tspan  y="0" class="t3">a</tspan><tspan  y="0" class="t3"> </tspan><tspan  y="0" class="t3">s</tspan><tspan  y="0" class="t3">a</tspan><tspan  y="0" class="t3">m</tspan><tspan  y="0" class="t3">y
</tspan>
	</text>
</svg>